<svg width="62" height="62" viewBox="0 0 62 62" fill="none" xmlns="http://www.w3.org/2000/svg">
<path d="M0 31C0 13.8588 13.8588 0 31 0C48.1412 0 62 13.8588 62 31C62 48.1412 48.1412 62 31 62C13.8588 62 0 48.1412 0 31ZM58.3529 31C58.3529 15.8647 46.1353 3.64706 31 3.64706C15.8647 3.64706 3.64706 15.8647 3.64706 31C3.64706 46.1353 15.8647 58.3529 31 58.3529C46.1353 58.3529 58.3529 46.1353 58.3529 31Z" fill="black"/>
<path d="M27.8996 46.1355L43.0349 31.0002L27.8996 15.865L30.4525 13.312L48.1407 31.0002L30.4525 48.6885L27.8996 46.1355Z" fill="black"/>
<path d="M45.5898 29.1765V32.8236H14.5898V29.1765H45.5898Z" fill="black"/>
</svg>