<svg width="42" height="38" viewBox="0 0 42 38" fill="none" xmlns="http://www.w3.org/2000/svg">
<path d="M20.1268 2.60587L20.1573 2.55296C20.2434 2.42256 20.3587 2.31369 20.4945 2.23525L20.4176 2.10217L20.4945 2.23525C20.6479 2.14665 20.8219 2.1 20.999 2.1C21.1761 2.1 21.3501 2.14665 21.5034 2.23525L22.5467 0.429568L21.5034 2.23525C21.6568 2.32385 21.7841 2.45128 21.8725 2.60472L21.8732 2.60587L39.7649 33.5941C39.8534 33.7474 39.9 33.9213 39.9 34.0983C39.9 34.2753 39.8534 34.4492 39.7649 34.6025L41.5836 35.6524L39.7649 34.6025C39.6764 34.7557 39.5491 34.883 39.3958 34.9716C39.2426 35.0601 39.0687 35.1066 38.8917 35.1067H3.10828C2.93133 35.1066 2.75745 35.0601 2.60416 34.9715C2.45087 34.883 2.32359 34.7557 2.23509 34.6025L0.416421 35.6524L2.23509 34.6025C2.14659 34.4492 2.1 34.2753 2.1 34.0983C2.1 33.9213 2.14659 33.7474 2.23509 33.5941L20.1268 2.60587Z" stroke="white" stroke-width="4.2"/>
</svg>
